<svg fill="none" height="40" viewBox="0 0 267 40" width="267" xmlns="http://www.w3.org/2000/svg"><g clip-rule="evenodd" fill-rule="evenodd"><g fill="#3d3f44"><path d="m65.3477 21.6991v-12.44886h2.9863v12.44886c0 3.8273 2.113 6.689 6.3375 6.689s6.3004-2.8617 6.3004-6.689v-12.44886h3.0234v12.44886c0 5.58-3.3874 9.515-9.3238 9.515-5.8637 0-9.3238-3.935-9.3238-9.515z"/><path d="m89.0137 30.7132h2.9863v-21.46296h-2.9863z"/><path d="m115.234 28.4954s-2.44 2.719-7.612 2.719c-6.847 0-11.4365-4.9727-11.4365-11.1964 0-6.2958 4.5895-11.23211 11.4365-11.23211 5.208 0 7.612 2.71831 7.612 2.71831l-1.712 2.2894s-2.294-2.218-5.864-2.218c-4.953 0-8.4127 3.7559-8.4127 8.4424 0 4.6501 3.4597 8.406 8.4127 8.406 3.679 0 5.864-2.218 5.864-2.218z"/><path d="m122.152 20.6971 11.692-11.44686h3.641v.42959l-8.704 8.58517 8.704 12.0186v.4296h-3.532l-7.357-10.3022-4.444 4.3996v5.9026h-2.986v-21.46296h2.986z"/><path d="m141.532 26.3851s2.403 2.0753 6.555 2.0753c3.679 0 5.245-1.3952 5.245-3.3984 0-1.8247-1.238-2.7546-5.755-4.0064-5.244-1.4665-7.612-3.0408-7.612-6.3672 0-3.6845 3.06-5.90251 8.195-5.90251 5.463 0 7.867 2.07461 7.867 2.07461l-1.639 2.4328s-2.222-1.7534-6.228-1.7534c-2.95 0-5.026 1.109-5.026 3.1122 0 1.61 1.348 2.4328 5.755 3.6132 5.718 1.5379 7.648 3.434 7.648 6.689 0 3.5411-2.55 6.2601-8.413 6.2601-5.645 0-8.231-2.6113-8.231-2.6113z"/><path d="m169.68 11.9331h-6.082v9.3723h6.082c3.533 0 5.791-1.4309 5.791-4.7579 0-3.1122-2.294-4.6144-5.791-4.6144zm-9.069-2.68261h9.178c5.463 0 8.778 2.53981 8.778 7.22571 0 4.8649-3.57 7.4761-8.96 7.4761h-6.009v6.7604h-2.987z"/><path d="m191.016 11.9331h-6.082v9.1575h6.373c3.205 0 5.464-1.4308 5.464-4.5431 0-3.1122-2.259-4.6144-5.755-4.6144zm8.886 4.5431c0 3.434-1.929 5.6877-4.916 6.689v.1434l5.645 6.8325v.5716h-3.314l-5.718-6.9752h-6.665v6.9752h-2.987v-21.46221h9.142c5.463 0 8.813 2.53981 8.813 7.22571z"/><path d="m222.626 20.018c0-4.6858-3.241-8.4418-8.341-8.4418-5.025 0-8.267 3.756-8.267 8.4418 0 4.6501 3.242 8.3704 8.267 8.3704 5.1 0 8.341-3.7203 8.341-8.3704zm-19.667 0c0-6.2958 4.407-11.23211 11.326-11.23211 6.994 0 11.401 4.93631 11.401 11.23211 0 6.2244-4.407 11.1964-11.401 11.1964-6.919 0-11.326-4.972-11.326-11.1964z"/><path d="m229.211 21.6991v-12.44886h2.986v12.44886c0 3.8273 2.113 6.689 6.338 6.689 4.224 0 6.3-2.8617 6.3-6.689v-12.44886h3.024v12.44886c0 5.58-3.388 9.515-9.324 9.515-5.864 0-9.324-3.935-9.324-9.515z"/><path d="m251.062 9.25049h18.101v2.68261h-7.575v18.7803h-2.987v-18.7803h-7.539z"/><path d="m50.3928 28.3884c-5.0259 0-8.2674-3.7203-8.2674-8.3704 0-4.6858 3.2415-8.4418 8.2674-8.4418 5.0993 0 8.3407 3.756 8.3407 8.4418 0 1.9087-.5538 3.6548-1.5504 5.0566l-2.9648-2.5234-1.9562 2.2174 2.761 2.3495c-1.2745.801-2.8343 1.2703-4.6303 1.2703zm11.3998-8.3704c0-6.2958-4.4069-11.23211-11.3998-11.23211-6.9195 0-11.3264 4.93631-11.3264 11.23211 0 6.2244 4.4069 11.1964 11.3264 11.1964 2.7657 0 5.1182-.7865 6.9626-2.1123l2.4817 2.1123 1.9555-2.2167-2.2967-1.9549c1.4797-1.916 2.2967-4.3534 2.2967-7.0248z"/></g><path d="m15.1325 26.8134c-3.1681 0-5.74533-2.5313-5.74533-5.6428 0-3.1116 2.57723-5.6429 5.74533-5.6429 3.168 0 5.7453 2.5313 5.7453 5.6429 0 3.1115-2.5773 5.6428-5.7453 5.6428zm3.7104 13.1864c-1.1258-.2961-2.8101-.8116-4.6565-1.6239l-.0525-.0231-.0068.0026c-.4535-.1916-3.9284-1.7051-7.28824-4.5582-3.29725-2.801-7.157733-7.506-6.8179139-14.0139.1473669-2.8201 1.0901139-5.617 2.8026639-8.3129 1.37274-2.16113 3.24006-4.26347 5.55083-6.24751 3.53676-3.03686 7.04806-4.868228 7.75456-5.22313414 1.1299 2.26492414 3.2637 3.94825414 5.5199 5.72807414 4.17 3.28866 8.8965 7.01687 8.4504 15.56957-.2066 3.9708-1.8936 7.5403-5.0138 10.6109-1.0074-.1071-3.442-.4567-6.1888-1.4983 4.0348-1.5234 6.7197-5.3388 6.7197-9.6096 0-5.6778-4.703-10.2969-10.4839-10.2969-5.78032 0-10.48329 4.6191-10.48329 10.2969 0 1.1593.19649 2.3013.58544 3.3945l.00336.0119c.01413.0548 1.53894 5.4808 9.68519 9.207 1.9326.955 4.0576 1.7025 6.3152 2.2233-1.014 1.3357-1.8188 2.8016-2.3955 4.3627z" fill="#3ba956"/><path d="m9.38834 21.1704c0-3.1115 2.57726-5.6428 5.74526-5.6428 3.1681 0 5.7453 2.5313 5.7453 5.6428 0 3.1116-2.5772 5.6429-5.7453 5.6429-3.168 0-5.74526-2.5313-5.74526-5.6429zm16.22926-.3701c0-5.6772-4.703-10.2969-10.484-10.2969-5.78025 0-10.48321 4.6197-10.48321 10.2969 0 1.1599.19716 2.3013.58543 3.3944l.00337.0126c.01413.0542 1.53894 5.4802 9.68521 9.2064 1.9332.955 4.0576 1.7032 6.3152 2.2233.5471-.6298 1.1662-1.2921 1.864-1.9668.681-.659 1.3485-1.2445 1.9837-1.762-1.008-.1071-3.4419-.4567-6.1894-1.4976 4.0348-1.5241 6.7197-5.3395 6.7197-9.6103z" fill="#fff"/></g></svg>