<svg xmlns="http://www.w3.org/2000/svg" width="25" height="25" fill="none" xmlns:v="https://vecta.io/nano"><mask id="A" maskUnits="userSpaceOnUse" x="0" y="0" width="13" height="25" mask-type="alpha"><path fill="#d9d9d9" d="M0 0h12.5v25H0z"/></mask><g mask="url(#A)"><path d="M12.526 0h.348c.377.112.56.388.72.717l3.249 6.665c.029.072.079.134.144.179a.43.43 0 0 0 .221.076l7.329 1.065c.425.064.748.215.913.611v.43l-.371.438-5.397 5.314c-.082.08-.145.146-.121.285l1 5.86.308 1.813c.086.527-.191.914-.688.976-.217.027-.402-.055-.587-.153l-6.622-3.523c-.182-.098-.556-.053-.654 0l-6.461 3.521c-.184.098-.369.181-.586.153-.516-.064-.778-.463-.683-1.021l1.292-7.58c.028-.158-.02-.248-.125-.351l-3.765-3.709L0 9.741v-.476c.169-.247.348-.474.689-.523l7.529-1.098c.199-.029.313-.1.402-.283L11.816.801c.162-.337.327-.653.709-.801z" fill="#fec007"/></g><mask id="B" maskUnits="userSpaceOnUse" x="12" y="0" width="13" height="25" mask-type="alpha"><path fill="#d9d9d9" d="M12.5 0H25v25H12.5z"/></mask><g mask="url(#B)"><path d="M12.523 0h.321c.348.112.517.388.665.717l2.999 6.665a.4.4 0 0 0 .133.179c.06.045.131.072.204.076l6.765 1.065c.392.064.69.215.843.611v.43l-.343.438-4.982 5.314c-.076.08-.134.146-.111.285l.923 5.86.284 1.813c.079.527-.176.914-.635.976-.2.027-.372-.055-.542-.153l-6.113-3.523c-.168-.098-.285-.096-.453 0l-6.114 3.521c-.17.098-.341.181-.541.153-.476-.064-.718-.463-.63-1.021l1.193-7.58c.026-.158-.018-.248-.116-.351l-3.475-3.709L.961 9.741v-.476c.156-.247.321-.474.636-.523l6.95-1.098c.184-.029.289-.1.371-.283l2.95-6.559c.15-.337.302-.653.655-.801z" fill="#fec007"/></g></svg>