<svg xmlns="http://www.w3.org/2000/svg" width="25" height="25" fill="none" xmlns:v="https://vecta.io/nano"><mask id="A" maskUnits="userSpaceOnUse" x="0" y="0" width="13" height="25" mask-type="alpha"><path fill="#d9d9d9" d="M0 0h12.5v25H0z"/></mask><g mask="url(#A)"><path d="M12.201 0h.334c.362.112.538.388.691.717l3.119 6.665c.028.072.076.134.138.179a.4.4 0 0 0 .212.076l7.036 1.065c.408.064.718.215.877.611v.43l-.357.438-5.181 5.314c-.079.08-.139.146-.116.285l.96 5.86.295 1.813c.082.527-.183.914-.661.976-.208.027-.386-.055-.563-.153l-6.358-3.523a.72.72 0 0 0-.628 0l-6.202 3.521c-.176.098-.355.181-.563.153-.495-.064-.747-.463-.656-1.021l1.241-7.58c.027-.158-.019-.248-.12-.351l-3.614-3.709-1.91-2.023v-.476c.162-.247.334-.474.661-.523l7.228-1.098a.44.44 0 0 0 .386-.283L11.519.801c.156-.337.314-.653.681-.801z" fill="#fec007"/></g><mask id="B" maskUnits="userSpaceOnUse" x="12" y="0" width="14" height="25" mask-type="alpha"><path fill="#d9d9d9" d="M12.5 0h13v25h-13z"/></mask><g mask="url(#B)"><path d="M12.525 0h.334c.362.112.538.388.691.717l3.119 6.665c.028.072.076.134.138.179a.4.4 0 0 0 .213.076l7.036 1.065c.408.064.718.215.877.611v.43l-.356.438-5.181 5.314c-.079.08-.139.146-.116.285l.96 5.86.295 1.813c.082.527-.183.914-.661.976-.208.027-.386-.055-.563-.153l-6.358-3.523c-.174-.098-.297-.096-.472 0l-6.359 3.521c-.176.098-.355.181-.563.153-.495-.064-.747-.463-.656-1.021l1.241-7.58c.027-.158-.019-.248-.12-.351L2.41 11.765.5 9.741v-.476c.162-.247.334-.474.661-.523L8.39 7.644a.44.44 0 0 0 .386-.283L11.843.801c.156-.337.314-.653.681-.801z" fill="#dadce0"/></g></svg>