<svg width="146" height="25" viewBox="0 0 146 25" fill="none" xmlns="http://www.w3.org/2000/svg">
<path d="M12.0245 0.432983H12.3586C12.7208 0.545318 12.8965 0.821048 13.0499 1.15039C14.0823 3.37474 15.1313 5.59144 16.1688 7.81515C16.197 7.88679 16.2449 7.94888 16.3071 7.99411C16.3692 8.03935 16.4429 8.06583 16.5196 8.07045C18.8639 8.42533 21.2088 8.78978 23.5556 9.13508C23.9637 9.19891 24.2736 9.35017 24.4321 9.7459V10.1761C24.3131 10.3216 24.2093 10.4774 24.0757 10.6139C22.346 12.3832 20.619 14.1544 18.8944 15.9275C18.8155 16.0079 18.755 16.0737 18.7786 16.2122C19.1038 18.1646 19.4195 20.1183 19.7384 22.0721C19.8365 22.6765 19.9389 23.2797 20.0338 23.8847C20.1159 24.4119 19.8505 24.7987 19.3731 24.8606C19.1649 24.8881 18.9867 24.8057 18.8098 24.7075C16.691 23.5339 14.5718 22.3595 12.4522 21.1842C12.2778 21.0866 12.1556 21.0885 11.9806 21.1842C9.86434 22.3633 7.74473 23.5371 5.62173 24.7055C5.44542 24.8032 5.26719 24.8862 5.05905 24.8587C4.56384 24.7949 4.31241 24.3953 4.40344 23.8375C4.81632 21.3112 5.22985 18.7846 5.64401 16.2575C5.67074 16.0992 5.62491 16.0098 5.52371 15.9064C4.31432 14.6727 3.10494 13.4408 1.90956 12.1975C1.26667 11.5292 0.572867 10.9056 0 10.1742V9.69803C0.162312 9.45102 0.334173 9.2238 0.661344 9.17465C3.07057 8.8102 5.47979 8.43873 7.88965 8.07684C8.0806 8.04812 8.19009 7.97663 8.27538 7.79345C9.29381 5.60484 10.325 3.42261 11.3434 1.23401C11.4993 0.897002 11.6572 0.581061 12.0245 0.432983Z" fill="#673DE6"/>
<path d="M42.4161 0.432983H42.7502C43.1124 0.545318 43.2881 0.821048 43.4415 1.15039C44.4739 3.37474 45.5229 5.59144 46.5604 7.81515C46.5886 7.88679 46.6365 7.94888 46.6987 7.99411C46.7608 8.03935 46.8345 8.06583 46.9112 8.07045C49.2555 8.42533 51.6004 8.78978 53.9472 9.13508C54.3553 9.19891 54.6652 9.35017 54.8237 9.7459V10.1761C54.7047 10.3216 54.6009 10.4774 54.4673 10.6139C52.7376 12.3832 51.0106 14.1544 49.286 15.9275C49.2071 16.0079 49.1466 16.0737 49.1702 16.2122C49.4954 18.1646 49.8111 20.1183 50.13 22.0721C50.2281 22.6765 50.3305 23.2797 50.4254 23.8847C50.5075 24.4119 50.2421 24.7987 49.7647 24.8606C49.5565 24.8881 49.3783 24.8057 49.2014 24.7075C47.0826 23.5339 44.9634 22.3595 42.8438 21.1842C42.6694 21.0866 42.5472 21.0885 42.3722 21.1842C40.2559 22.3633 38.1363 23.5371 36.0133 24.7055C35.837 24.8032 35.6588 24.8862 35.4507 24.8587C34.9554 24.7949 34.704 24.3953 34.795 23.8375C35.2079 21.3112 35.6215 18.7846 36.0356 16.2575C36.0623 16.0992 36.0165 16.0098 35.9153 15.9064C34.7059 14.6727 33.4965 13.4408 32.3012 12.1975C31.6583 11.5292 30.9645 10.9056 30.3916 10.1742V9.69803C30.5539 9.45102 30.7258 9.2238 31.0529 9.17465C33.4622 8.8102 35.8714 8.43873 38.2813 8.07684C38.4722 8.04812 38.5817 7.97663 38.667 7.79345C39.6854 5.60484 40.7166 3.42261 41.735 1.23401C41.8909 0.897002 42.0488 0.581061 42.4161 0.432983Z" fill="#673DE6"/>
<path d="M72.8087 0.432983H73.1428C73.505 0.545318 73.6807 0.821048 73.8341 1.15039C74.8665 3.37474 75.9155 5.59144 76.953 7.81515C76.9811 7.88679 77.0291 7.94888 77.0912 7.99411C77.1534 8.03935 77.2271 8.06583 77.3037 8.07045C79.648 8.42533 81.993 8.78978 84.3398 9.13508C84.7478 9.19891 85.0578 9.35017 85.2163 9.7459V10.1761C85.0973 10.3216 84.9935 10.4774 84.8599 10.6139C83.1302 12.3832 81.4031 14.1544 79.6786 15.9275C79.5997 16.0079 79.5392 16.0737 79.5628 16.2122C79.888 18.1646 80.2037 20.1183 80.5226 22.0721C80.6206 22.6765 80.7231 23.2797 80.818 23.8847C80.9001 24.4119 80.6346 24.7987 80.1573 24.8606C79.9491 24.8881 79.7709 24.8057 79.5939 24.7075C77.4752 23.5339 75.356 22.3595 73.2364 21.1842C73.062 21.0866 72.9398 21.0885 72.7647 21.1842C70.6485 22.3633 68.5289 23.5371 66.4059 24.7055C66.2296 24.8032 66.0514 24.8862 65.8432 24.8587C65.348 24.7949 65.0966 24.3953 65.1876 23.8375C65.6005 21.3112 66.014 18.7846 66.4282 16.2575C66.4549 16.0992 66.4091 16.0098 66.3079 15.9064C65.0985 14.6727 63.8891 13.4408 62.6937 12.1975C62.0509 11.5292 61.357 10.9056 60.7842 10.1742V9.69803C60.9465 9.45102 61.1184 9.2238 61.4455 9.17465C63.8547 8.8102 66.264 8.43873 68.6738 8.07684C68.8648 8.04812 68.9743 7.97663 69.0596 7.79345C70.078 5.60484 71.1091 3.42261 72.1276 1.23401C72.2835 0.897002 72.4414 0.581061 72.8087 0.432983Z" fill="#673DE6"/>
<path d="M133.592 0.432983H133.927C134.289 0.545318 134.464 0.821048 134.618 1.15039C135.65 3.37474 136.699 5.59144 137.737 7.81515C137.765 7.88679 137.813 7.94888 137.875 7.99411C137.937 8.03935 138.011 8.06583 138.087 8.07045C140.432 8.42533 142.777 8.78978 145.124 9.13508C145.532 9.19891 145.842 9.35017 146 9.7459V10.1761C145.881 10.3216 145.777 10.4774 145.644 10.6139C143.914 12.3832 142.187 14.1544 140.462 15.9275C140.383 16.0079 140.323 16.0737 140.346 16.2122C140.672 18.1646 140.987 20.1183 141.306 22.0721C141.404 22.6765 141.507 23.2797 141.602 23.8847C141.684 24.4119 141.418 24.7987 140.941 24.8606C140.733 24.8881 140.555 24.8057 140.378 24.7075C138.259 23.5339 136.14 22.3595 134.02 21.1842C133.846 21.0866 133.723 21.0885 133.548 21.1842C131.432 22.3633 129.313 23.5371 127.19 24.7055C127.013 24.8032 126.835 24.8862 126.627 24.8587C126.132 24.7949 125.88 24.3953 125.971 23.8375C126.384 21.3112 126.798 18.7846 127.212 16.2575C127.239 16.0992 127.193 16.0098 127.092 15.9064C125.882 14.6727 124.673 13.4408 123.477 12.1975C122.835 11.5292 122.141 10.9056 121.568 10.1742V9.69803C121.73 9.45102 121.902 9.2238 122.229 9.17465C124.638 8.8102 127.048 8.43873 129.458 8.07684C129.648 8.04812 129.758 7.97663 129.843 7.79345C130.862 5.60484 131.893 3.42261 132.911 1.23401C133.067 0.897002 133.225 0.581061 133.592 0.432983Z" fill="#673DE6"/>
<path d="M103.024 0.432983H103.359C103.721 0.545318 103.897 0.821048 104.05 1.15039C105.082 3.37474 106.131 5.59144 107.169 7.81515C107.197 7.88679 107.245 7.94888 107.307 7.99411C107.369 8.03935 107.443 8.06583 107.52 8.07045C109.864 8.42533 112.209 8.78978 114.556 9.13508C114.964 9.19891 115.274 9.35017 115.432 9.7459V10.1761C115.313 10.3216 115.209 10.4774 115.076 10.6139C113.346 12.3832 111.619 14.1544 109.894 15.9275C109.815 16.0079 109.755 16.0737 109.779 16.2122C110.104 18.1646 110.42 20.1183 110.738 22.0721C110.836 22.6765 110.939 23.2797 111.034 23.8847C111.116 24.4119 110.85 24.7987 110.373 24.8606C110.165 24.8881 109.987 24.8057 109.81 24.7075C107.691 23.5339 105.572 22.3595 103.452 21.1842C103.278 21.0866 103.156 21.0885 102.981 21.1842C100.864 22.3633 98.7447 23.5371 96.6217 24.7055C96.4454 24.8032 96.2672 24.8862 96.0591 24.8587C95.5638 24.7949 95.3124 24.3953 95.4034 23.8375C95.8163 21.3112 96.2298 18.7846 96.644 16.2575C96.6707 16.0992 96.6249 16.0098 96.5237 15.9064C95.3143 14.6727 94.1049 13.4408 92.9096 12.1975C92.2667 11.5292 91.5729 10.9056 91 10.1742V9.69803C91.1623 9.45102 91.3342 9.2238 91.6613 9.17465C94.0706 8.8102 96.4798 8.43873 98.8896 8.07684C99.0806 8.04812 99.1901 7.97663 99.2754 7.79345C100.294 5.60484 101.325 3.42261 102.343 1.23401C102.499 0.897002 102.657 0.581061 103.024 0.432983Z" fill="#673DE6"/>
</svg>
