<svg width="189" height="35" fill="none" xmlns="http://www.w3.org/2000/svg"><path d="M18.493 0c4.404.043 8.437 1.246 11.958 3.967 2.987 2.308 5.023 5.267 5.75 9.038.639 3.322.061 6.457-1.592 9.393-.1.179-.15.299 0 .495 2.507 3.182 2.069 7.365-1.074 9.916-2.53 2.052-5.428 2.613-8.565 1.89-2.152-.495-3.937-1.607-5.238-3.442-.096-.135-.2-.174-.36-.17-.601.012-1.202.014-1.802 0-.174-.004-.28.036-.386.183-1.65 2.268-3.934 3.39-6.655 3.668-2.3.235-4.446-.273-6.378-1.556C2.39 32.213 1.189 30.62.805 28.49c-.372-2.067.176-3.904 1.455-5.532.161-.202.188-.337.053-.573C-.69 17.078.05 10.672 4.186 6.095c2.81-3.112 6.326-4.929 10.39-5.731A19.477 19.477 0 0 1 18.493 0zM19.7 11.602c-2.011 0-4.023.008-6.034-.008-.316 0-.383.104-.38.392.012 1.155 0 2.309.006 3.463 0 .538-.042.444.443.444 3.945.003 7.89.003 11.835 0 .415 0 .526-.106.526-.539 0-1.12-.012-2.24.006-3.36.006-.318-.076-.412-.4-.41-2 .028-4.002.018-6.002.018zm-9.25 6.822c0 .603.008 1.158-.004 1.712a.5.5 0 0 0 .2.43c.447.386.916.745 1.407 1.072 2.67 1.752 5.606 2.464 8.765 2.34a11.258 11.258 0 0 0 3.883-.841c.101-.041.262-.04.263-.21v-1.752c-5.3 1.536-10.095.567-14.514-2.75zm-2.493-4.665c0 .617.005 1.233 0 1.85 0 .197.035.298.267.294a88.57 88.57 0 0 1 2.536-.005c.237 0 .327-.068.324-.32a223.716 223.716 0 0 1-.004-3.663c0-.227-.067-.311-.298-.309-.845.01-1.69.01-2.537-.006-.242-.004-.294.09-.29.31.009.616.002 1.233.002 1.85z" fill="#FE6600"/><path d="M116.951 24.41c-.321.336-.624.673-.971.97-2.094 1.776-6.379 1.545-7.28-2.655-.753-3.51 1.068-8.623 6.152-10.104 2.675-.78 5.318-.48 7.911.456.194.068.214.17.181.351-.708 3.85-1.405 7.701-2.115 11.55-.23 1.246-.576 2.456-1.108 3.612-.895 1.944-2.382 3.136-4.441 3.61-2.109.495-4.311.419-6.381-.222-.871-.266-.868-.285-.605-1.145.214-.705.443-1.405.645-2.115.063-.22.115-.238.329-.151 1.393.567 2.842.8 4.338.578 1.112-.164 1.94-.774 2.502-1.76.524-.92.698-1.943.843-2.976zm.174-9.043c-.734 0-1.316.182-1.94.597-1.683 1.118-2.579 3.637-2.263 5.523.181 1.078.74 1.639 1.664 1.72.664.058 1.201-.243 1.674-.684.635-.593 1.048-1.332 1.299-2.155.455-1.489.622-3.04.943-4.56.038-.182-.051-.236-.195-.275a4.056 4.056 0 0 0-1.182-.169v.003zm-54.564-2.839a12293.092 12293.092 0 0 0-6.578 13.657c-.124.26-.266.347-.551.342-1.056-.02-2.112-.012-3.168-.004-.2 0-.294-.031-.31-.264-.14-1.999-.365-3.991-.45-5.995-.044-1.005-.04-2.011-.098-3.03-.134.357-.283.712-.4 1.077-.928 2.775-2.28 5.362-3.482 8.016-.075.165-.171.198-.334.197-1.122-.005-2.245-.01-3.368 0-.225 0-.282-.083-.3-.284a2965.35 2965.35 0 0 0-.752-8.195 969.381 969.381 0 0 0-.5-5.25c-.02-.208.019-.274.234-.272a261.1 261.1 0 0 0 3.67 0c.224 0 .25.092.25.28-.023 3.192.104 6.386-.1 9.576-.008.135 0 .27 0 .43.144-.17.168-.373.233-.552.952-2.617 2.145-5.13 3.275-7.67.273-.612.555-1.22.818-1.836.073-.17.163-.23.347-.228.956.01 1.912.008 2.87 0 .163 0 .256.01.267.223.153 3.042.422 6.077.392 9.128-.008.326.004.652.034.976.157-.495.318-.987.468-1.482.82-2.735 1.984-5.337 3.051-7.976.35-.865.355-.863 1.284-.863h3.198zm5.17 2.034c.33-.388.614-.716.942-.997 1.192-1.023 2.568-1.517 4.128-1.336 1.916.223 3.07 1.382 3.614 3.2.962 3.22-.342 8.475-4.303 10.55-1.902.996-3.885 1.195-5.908.34-.2-.083-.192.022-.216.154-.33 1.78-.668 3.56-.99 5.343-.05.282-.14.378-.436.372a97.316 97.316 0 0 0-3.434 0c-.286.006-.3-.095-.256-.325a7976.97 7976.97 0 0 0 2.696-14.241c.3-1.606.506-3.227.687-4.85.03-.264.082-.383.39-.375 1.022.025 2.045.014 3.07.006.211 0 .281.029.243.275-.097.594-.148 1.196-.227 1.884zm4.66 3.392c0-.18.015-.36 0-.54-.09-.952-.577-1.632-1.339-1.805-.807-.183-1.48.135-2.069.674-.667.61-1.082 1.385-1.382 2.223-.508 1.42-.612 2.928-.892 4.397-.034.18.078.24.185.316 1.073.774 2.554.633 3.56-.375 1.34-1.342 1.855-3.035 1.938-4.89zm11.754-3.73c.821-.943 1.77-1.561 2.914-1.845 1.26-.312 2.5-.297 3.634.428 1.173.751 1.768 1.913 1.895 3.249.338 3.538-.734 6.57-3.466 8.896-1.365 1.161-3.003 1.71-4.773 1.848-1.068.082-2.131.049-3.169-.266-1.713-.518-2.627-1.751-2.643-3.55-.011-1.176.25-2.312.475-3.453.859-4.347 1.718-8.695 2.579-13.042.044-.223.114-.29.333-.289 1.179.01 2.357.013 3.537 0 .261 0 .322.061.267.32-.525 2.506-1.045 5.014-1.559 7.523-.006.03-.008.064-.024.18zm-1.386 7.693c.011.155.017.312.035.468.096.831.62 1.303 1.444 1.325a2.588 2.588 0 0 0 1.843-.654c1.722-1.53 2.46-3.492 2.23-5.766-.158-1.564-1.504-2.178-2.882-1.426-.517.29-.957.702-1.282 1.2-.988 1.461-1.134 3.169-1.388 4.853zm70.504-7.083c.344-.387.624-.761.97-1.078 1.342-1.212 2.898-1.751 4.693-1.495 1.518.22 2.5 1.238 2.736 2.788.196 1.284 0 2.546-.233 3.802-.447 2.43-.918 4.857-1.362 7.288-.055.3-.155.391-.463.385-1.144-.021-2.29-.014-3.435-.004-.238 0-.32-.018-.267-.305.493-2.524.969-5.052 1.444-7.58a6.995 6.995 0 0 0 .11-1.739c-.067-1.065-.836-1.596-1.856-1.285-.633.193-1.102.614-1.498 1.125-.875 1.124-1.264 2.446-1.517 3.823-.351 1.915-.714 3.826-1.067 5.74-.031.168-.097.22-.261.22a423.783 423.783 0 0 0-3.671 0c-.2 0-.207-.068-.175-.24.648-3.44 1.291-6.88 1.93-10.322.19-1.034.343-2.075.499-3.114.032-.223.082-.33.339-.325a108.5 108.5 0 0 0 3.035 0c.228 0 .305.036.267.296-.087.654-.142 1.31-.218 2.02zm-15.953-.077c.551-.632 1.121-1.222 1.824-1.668 1.227-.777 2.563-1.056 3.987-.808 1.425.249 2.39 1.338 2.597 2.86.166 1.218-.014 2.415-.23 3.604-.447 2.455-.923 4.904-1.374 7.357-.058.311-.158.434-.5.425a95.307 95.307 0 0 0-3.369-.005c-.272 0-.356-.03-.294-.347.5-2.56.986-5.12 1.457-7.679.106-.572.166-1.157.073-1.738-.161-1.003-.878-1.437-1.85-1.138-.645.202-1.116.636-1.516 1.157-.83 1.082-1.22 2.348-1.468 3.669-.361 1.936-.72 3.871-1.076 5.807-.036.196-.106.275-.322.273-1.19-.012-2.379-.012-3.569 0-.217 0-.264-.057-.224-.27.677-3.585 1.349-7.171 2.016-10.757.167-.902.299-1.81.427-2.719.029-.202.098-.257.291-.256 1.034.008 2.068.008 3.102 0 .209 0 .263.05.235.265-.086.653-.147 1.314-.217 1.968zm31.914 6.381c-.448 0-.838.022-1.226-.007-.293-.023-.296.11-.259.33.183 1.084.883 1.818 2.021 2.04 1.591.308 3.111 0 4.585-.61.366-.153.357-.16.391.225.066.78.133 1.562.219 2.34.025.224-.047.317-.235.404-1.42.643-2.918.909-4.46.978-.904.041-1.802-.024-2.67-.275-2.202-.634-3.42-2.163-3.697-4.397-.4-3.256.575-6.067 3.082-8.202 1.976-1.684 4.304-2.183 6.807-1.476 1.814.512 2.838 1.873 2.915 3.768.067 1.639-.559 3.025-2.43 3.916-1.057.504-2.19.722-3.342.841-.585.058-1.173.087-1.701.125zm-.196-3.043c.178-.009.533-.016.886-.044.687-.054 1.369-.135 2.013-.404.325-.135.609-.33.786-.645.458-.808-.072-1.68-1.076-1.77-1.395-.127-2.643.682-3.298 2.134-.333.74-.297.791.689.729zm-69.713 3.043c-.267 0-.534.016-.8-.005-.248-.02-.268.085-.238.293.153 1.085.867 1.847 2.025 2.074 1.554.305 3.045.017 4.491-.574.467-.19.453-.196.496.324.061.736.127 1.472.209 2.206.025.221-.055.319-.242.405-1.209.549-2.483.822-3.796.936-1.124.097-2.242.077-3.337-.237-2.095-.602-3.437-2.188-3.702-4.404-.324-2.721.329-5.186 2.13-7.245 2.073-2.373 4.708-3.255 7.758-2.425 2.638.72 3.786 3.773 2.385 6.072-.616 1.01-1.573 1.552-2.647 1.92-1.318.45-2.686.585-4.066.638-.221.01-.444 0-.667 0l.001.022zm.072-3.027c.72-.035 1.44-.059 2.151-.194.449-.085.888-.202 1.276-.456.441-.287.658-.7.585-1.226-.072-.525-.429-.808-.917-.943a2.332 2.332 0 0 0-1.088-.028c-1.355.264-2.15 1.163-2.63 2.404-.169.44-.158.444.324.444l.3-.001zm83.762-2.675c.29-.484.527-.884.816-1.248.805-1.01 1.779-1.744 3.083-1.95.388-.06.777-.025 1.165-.032.178-.004.184.073.152.23a329.18 329.18 0 0 0-.701 3.586c-.035.182-.119.222-.294.21-.948-.068-1.839.1-2.602.713-.917.734-1.408 1.742-1.759 2.83-.396 1.228-.545 2.511-.794 3.771-.176.89-.334 1.781-.487 2.674-.04.23-.122.306-.363.303a121.334 121.334 0 0 0-3.471 0c-.298.005-.321-.103-.274-.35.515-2.725 1.027-5.451 1.535-8.178.284-1.52.439-3.057.581-4.595.082-.876.067-.876.925-.876.811 0 1.623.007 2.434-.004.223 0 .302.028.272.29-.093.8-.148 1.605-.217 2.408-.003.042-.001.08-.001.218zM125.972 26.52c-.577 0-1.156-.015-1.735.006-.283.011-.308-.092-.263-.331.524-2.746 1.044-5.492 1.559-8.239.324-1.713.651-3.426.964-5.14.04-.22.113-.294.338-.292 1.178.01 2.356.01 3.533 0 .259 0 .281.075.237.308-.846 4.448-1.682 8.897-2.509 13.348-.051.273-.147.361-.427.348-.563-.027-1.131-.008-1.697-.008zm3.157-15.74c-1.195 0-1.992-.797-1.996-1.994-.004-1.36 1.001-2.367 2.365-2.367 1.248 0 2.065.808 2.064 2.042-.001 1.373-.995 2.32-2.433 2.32z" fill="#FE6601"/></svg>