<svg fill="none" height="50" viewBox="0 0 275 50" width="275" xmlns="http://www.w3.org/2000/svg"><g fill="#f60"><path d="m60.7773 17.6682 2.0275 20.1187h5.5634l3.0416-6.336 2.8508-7.0409.219 6.3725.548 7.0044h5.5907l9.9472-20.1187h-6.1387l-3.1515 7.6805-2.5482 7.1313-.1002-6.4629-.4477-8.3489h-4.9055l-3.8183 8.3575-2.6221 6.4812.1372-14.8387z"/><path d="m110.572 21.5853c-.416-1.0916-2.018-4.3779-6.265-4.1999-1.875.0788-3.252.5636-4.6646 1.785-.438.3789-1.1728.9973-1.569 1.4762l.2745-2.9785h-5.3444c-.219 3.5652-2.6124 16.5449-5.0973 28.2425h6.0287l1.5894-8.4479s5.1797 2.789 10.9897-1.761c5.81-4.549 4.615-12.6546 4.058-14.1164zm-5.685 4.0105c-.114 1.4426-.687 5.5232-3.521 7.439-2.7037 1.8283-4.5764.0452-4.7681-.1808 0 0 .512-8.8134 4.3531-10.3666 2.216-.8954 3.254.3462 3.666 1.3301.235.5617.318 1.1733.27 1.7783z"/><path d="m133.94 21.3325c-.601-1.6581-1.925-2.941-3.603-3.5335-4.619-1.632-8.339 2.3871-8.339 2.3871l2.357-11.37262h-5.974l-4.276 20.90442c-1.918 8.4758 5.317 8.5566 5.317 8.5566 8.66.8127 12.195-5.1722 12.195-5.1722 3.443-5.6118 3.135-9.5232 2.323-11.7698zm-5.804 4.852c-.088 1.2089-.667 3.4266-1.856 5.2193 0 0-2.144 3.0093-4.736 2.4246-.374-.0847-.714-.2866-.948-.5886-.366-.4741-.767-1.3965-.58-3.0891 0 0 .272-5.5993 3.991-7.6536 1.045-.577 2.289-.4174 2.995.1558 1.029.8358 1.231 2.2188 1.134 3.5316z"/><path d="m148.744 17.3701c-7.864-.2318-10.673 6.8235-10.673 6.8235-3.097 7.4468.589 11.4275.589 11.4275 4.193 5.3617 14.524 1.1377 14.524 1.1377l-.384-4.3057c-10.578 3.9258-10.304-2.3024-10.304-2.3024s2.864.0875 5.385-.1895c8.03-.88 7.77-6.1869 7.77-6.1869s.456-6.1878-6.907-6.4042zm1.316 6.2148c-.192 1.2723-1.138 1.5436-1.138 1.5436s-1.561.88-5.809.7309c0 0 1.008-4.6731 5.307-4.0759.397.0558.78.2049 1.088.4568.336.2741.647.7079.552 1.3446z"/><path d="m250.031 17.3701c-7.864-.2318-10.673 6.8235-10.673 6.8235-3.097 7.4468.589 11.4275.589 11.4275 4.193 5.3617 14.525 1.1377 14.525 1.1377l-.385-4.3057c-10.578 3.9258-10.303-2.3024-10.303-2.3024s2.863.0875 5.384-.1895c8.03-.88 7.77-6.1869 7.77-6.1869s.456-6.1878-6.907-6.4042zm1.316 6.2148c-.192 1.2723-1.138 1.5436-1.138 1.5436s-1.561.88-5.809.7309c0 0 1.008-4.6731 5.307-4.0759.397.0558.78.2049 1.088.4568.336.2741.648.7079.552 1.3446z"/><path d="m167.188 17.8576c-5.946 1.4618-8.248 6.6071-8.248 6.6071-2.521 5.1175-.74 9.3145-.74 9.3145.603 1.7061 2.412 3.7373 5.919 4.0076 3.508.2712 5.783-3.0055 5.783-3.0055-.877 11.0485-11.619 5.9301-11.619 5.9301l-1.371 4.4952c1.727 1.0291 5.81 1.3272 5.81 1.3272 9.455.2982 10.988-5.4704 11.565-6.4994.575-1.0291 4.357-21.2834 4.357-21.2834-6.194-2.3832-11.456-.8934-11.456-.8934zm3.893 9.7482c-.29 1.6301-.939 2.8217-1.45 3.5738-.544.7983-1.332 1.4128-2.251 1.7331-3.09 1.0781-3.48-2.4101-3.48-2.4101s-.685-3.547 1.973-6.5793c2.658-3.0334 6.248-1.6792 6.248-1.6792z"/><path d="m191.167 12.3873c-.085 1.7177-1.593 2.966-3.193 2.992-2.255.0365-3.292-1.2368-3.292-2.9564s1.594-3.41227 3.677-3.28532c1.747.10675 2.899 1.38972 2.808 3.24972z"/><path d="m183.859 17.6682h6.065l-3.946 20.1187h-6.029z"/><path d="m190.947 37.7868h6.029l1.742-9.199c.25-1.3224.714-2.5996 1.401-3.7604.685-1.157 1.651-2.3265 2.849-2.5842 1.54-.3309 2.208.4029 2.494 1.0242.155.3366.218.7069.207 1.0772-.025.7415-.172 2.7727-.983 6.5639-1.06 4.9462-1.352 6.8783-1.352 6.8783h5.955l2.019-9.6405s1.854-7.7083-1.142-9.6578c-1.061-.6905-2.526-.9896-3.585-1.0377-2.056-.0933-3.754.6675-5.328 1.9783-.568.4732-1.167 1.0637-1.684 1.7677l.365-3.5296h-5.408c.002.001-3.47 21.3661-3.579 20.1196z"/><path d="m214.15 37.7868h6.029l1.742-9.199c.25-1.3224.714-2.5996 1.401-3.7604.685-1.157 1.652-2.3265 2.849-2.5842 1.541-.3309 2.208.4029 2.494 1.0242.155.3366.218.7069.207 1.0772-.025.7415-.172 2.7727-.983 6.5639-1.06 4.9462-1.352 6.8783-1.352 6.8783h5.955l2.019-9.6405s1.854-7.7083-1.142-9.6578c-1.061-.6905-2.526-.9896-3.585-1.0377-2.056-.0933-3.754.6675-5.328 1.9783-.568.4732-1.167 1.0637-1.684 1.7677l.365-3.5296h-5.408c.002.001-3.469 21.3661-3.579 20.1196z"/><path d="m261.579 17.6682h5.298l-.438 4.2509s2.485-5.0905 7.601-4.4769l-1.096 5.7772s-5.518-1.2272-7.016 5.957c-1.498 7.1852-1.681 8.6114-1.681 8.6114h-6.028c-.002-.0009 2.995-13.323 3.36-20.1196z"/><path d="m49.6233 32.3972c1.6011 1.837 2.5481 4.1124 2.5481 6.5784 0 6.0887-5.7795 11.0244-12.9081 11.0244-4.7896 0-8.97-2.2284-11.1969-5.5367-.5996.0355-1.206.0528-1.8162.0528-.6492 0-1.2926-.0202-1.9291-.0596-2.226 3.3123-6.4083 5.5435-11.2009 5.5435-7.12947 0-12.908018-4.9357-12.908018-11.0244 0-2.5006.974288-4.8059 2.617228-6.6563-1.80938-3.0218-2.82941-6.4398-2.82941-10.0607 0-12.29303 11.7527-22.2586 26.2502-22.2586 14.4974 0 26.2502 9.96557 26.2502 22.2586 0 3.6517-1.0376 7.0976-2.8771 10.1386z"/></g><path d="m15.2852 16.6111h-4.3848v6.1744h4.3848z" fill="#fff"/><path d="m37.1598 16.6111h-18.5309v6.1744h18.5309z" fill="#fff"/><path d="m14.5176 26.4951s8.495 7.6901 21.2113 3.9537v2.6535s-9.0985 5.5781-21.2113-3.7373z" fill="#fff"/></svg>